<svg xmlns="http://www.w3.org/2000/svg" viewBox="0 0 800 500">
<defs>
<linearGradient id="bg3" x1="0" y1="0" x2="1" y2="1">
<stop offset="0" stop-color="#0F172A"/><stop offset="1" stop-color="#1E293B"/>
</linearGradient>
</defs>
<rect width="800" height="500" fill="url(#bg3)"/>
<rect x="40" y="40" width="720" height="420" rx="12" fill="#15233A"/>
<g stroke="#2C3E5C" stroke-width="1.5">
<line x1="80" y1="80" x2="720" y2="120"/>
<line x1="80" y1="160" x2="720" y2="200"/>
<line x1="80" y1="240" x2="720" y2="260"/>
<line x1="80" y1="320" x2="720" y2="340"/>
<line x1="120" y1="60" x2="160" y2="440"/>
<line x1="300" y1="60" x2="340" y2="440"/>
<line x1="480" y1="60" x2="520" y2="440"/>
<line x1="640" y1="60" x2="680" y2="440"/>
</g>
<circle cx="200" cy="150" r="10" fill="#3B82F6"/>
<circle cx="420" cy="220" r="10" fill="#60A5FA"/>
<circle cx="560" cy="320" r="10" fill="#3B82F6"/>
<circle cx="320" cy="350" r="10" fill="#60A5FA"/>
<path d="M200,150 L420,220 L560,320" stroke="#3B82F6" stroke-width="2" fill="none" stroke-dasharray="6 6"/>
</svg>
